<?xml version="1.0" standalone="no"?>
<svg width="64" height="64" viewBox="0 0 416 384" version="1.1" xmlns="http://www.w3.org/2000/svg">
  <path d="M208 400c115 0 208 -93 208 -208s-93 -208 -208 -208s-208 93 -208 208s93 208 208 208zM208 1c59 0 111 27 146 69c-20 8 -66 24 -93 32c-2 1 -3 1 -3 11c0 8 4 16 7 23c4 8 7 21 9 32c4 5 10 14 14 32c3 16 2 22 0 28c0 0 -1 1 -1 2c-1 4 0 23 3 38c2 10 -1 34 -15 52 c-9 12 -26 26 -58 28h-18c-31 -2 -49 -16 -58 -28c-14 -18 -17 -42 -15 -52c3 -15 4 -34 3 -38v-2c-2 -6 -4 -12 -1 -28c4 -18 10 -28 14 -33c2 -11 5 -23 9 -31c3 -6 4 -13 4 -24c0 -10 -1 -9 -3 -10c-28 -8 -72 -24 -90 -32c35 -42 87 -69 146 -69z" transform="matrix(1,0,0,-1,0,384)"/>
</svg>